<?xml version="1.0" encoding="UTF-8"?>
<svg xmlns="http://www.w3.org/2000/svg" viewBox="0 0 2400 3000" width="2400" height="3000">
  <title>Eucalyptus Branch</title>
  <desc>Fine line botanical eucalyptus branch illustration in sage green</desc>

  <!-- Background -->
  <rect width="2400" height="3000" fill="#F0EEE9"/>

  <g stroke-linecap="round" stroke-linejoin="round" fill="none">

    <!-- Main stem - flowing diagonal from bottom-left to upper-right with hand-drawn feel -->
    <path d="M580 2650 C620 2500, 680 2340, 750 2180 C820 2020, 900 1860, 980 1710 C1060 1560, 1140 1420, 1230 1280 C1320 1140, 1410 1020, 1500 900 C1590 780, 1670 680, 1740 580 C1810 480, 1860 400, 1890 340"
          stroke="#6D6244" stroke-width="4"/>

    <!-- Sub-branch 1 - left side, about 1/3 up -->
    <path d="M870 1940 C810 1860, 740 1800, 660 1760"
          stroke="#6D6244" stroke-width="3"/>

    <!-- Sub-branch 2 - right side, about 2/3 up -->
    <path d="M1360 1120 C1430 1060, 1510 1020, 1600 1000"
          stroke="#6D6244" stroke-width="2.5"/>

    <!-- Leaves along main stem - alternating sides, organic shapes -->
    <!-- Leaf pair 1 - bottom -->
    <g stroke="#B1C5A4" stroke-width="2.5">
      <!-- Right leaf -->
      <path d="M620 2580 C680 2520, 740 2500, 780 2520 C760 2560, 700 2580, 640 2580"/>
      <path d="M640 2555 L760 2530" stroke-width="1.5"/>
      <!-- Left leaf -->
      <path d="M600 2570 C540 2510, 490 2500, 460 2520 C480 2560, 530 2575, 580 2570"/>
      <path d="M575 2550 L470 2530" stroke-width="1.5"/>
    </g>

    <!-- Leaf pair 2 -->
    <g stroke="#B1C5A4" stroke-width="2.5">
      <path d="M680 2440 C740 2370, 810 2350, 850 2375 C830 2410, 760 2430, 700 2435"/>
      <path d="M700 2410 L835 2378" stroke-width="1.5"/>
      <path d="M660 2430 C600 2365, 540 2350, 510 2375 C530 2410, 590 2425, 650 2425"/>
      <path d="M645 2405 L520 2378" stroke-width="1.5"/>
    </g>

    <!-- Leaf pair 3 -->
    <g stroke="#B1C5A4" stroke-width="2.5">
      <path d="M760 2280 C825 2210, 895 2190, 935 2215 C915 2250, 845 2270, 780 2275"/>
      <path d="M785 2250 L920 2218" stroke-width="1.5"/>
      <path d="M740 2270 C680 2205, 615 2192, 585 2218 C605 2252, 670 2268, 730 2268"/>
      <path d="M725 2248 L598 2220" stroke-width="1.5"/>
    </g>

    <!-- Leaf pair 4 -->
    <g stroke="#B1C5A4" stroke-width="2.5">
      <path d="M860 2100 C925 2035, 995 2015, 1035 2038 C1015 2072, 945 2092, 880 2095"/>
      <path d="M885 2070 L1020 2042" stroke-width="1.5"/>
      <path d="M840 2092 C780 2030, 715 2018, 688 2042 C708 2075, 770 2090, 830 2088"/>
      <path d="M825 2068 L700 2044" stroke-width="1.5"/>
    </g>

    <!-- Leaf pair 5 -->
    <g stroke="#B1C5A4" stroke-width="2.5">
      <path d="M960 1910 C1025 1845, 1095 1828, 1132 1852 C1112 1885, 1045 1902, 978 1905"/>
      <path d="M985 1882 L1118 1855" stroke-width="1.5"/>
      <path d="M942 1902 C882 1842, 818 1830, 790 1855 C810 1888, 872 1900, 932 1898"/>
      <path d="M925 1878 L802 1858" stroke-width="1.5"/>
    </g>

    <!-- Leaf pair 6 -->
    <g stroke="#B1C5A4" stroke-width="2.5">
      <path d="M1068 1700 C1130 1638, 1198 1622, 1235 1645 C1218 1678, 1150 1695, 1085 1698"/>
      <path d="M1092 1675 L1222 1648" stroke-width="1.5"/>
      <path d="M1050 1695 C992 1635, 930 1625, 905 1650 C922 1682, 982 1695, 1042 1692"/>
      <path d="M1035 1672 L918 1655" stroke-width="1.5"/>
    </g>

    <!-- Leaf pair 7 -->
    <g stroke="#B1C5A4" stroke-width="2.5">
      <path d="M1170 1500 C1235 1438, 1300 1425, 1335 1448 C1318 1480, 1252 1498, 1190 1498"/>
      <path d="M1198 1475 L1322 1452" stroke-width="1.5"/>
      <path d="M1155 1495 C1098 1438, 1038 1430, 1015 1455 C1035 1485, 1092 1498, 1148 1495"/>
      <path d="M1140 1472 L1028 1458" stroke-width="1.5"/>
    </g>

    <!-- Leaf pair 8 -->
    <g stroke="#B1C5A4" stroke-width="2.5">
      <path d="M1280 1310 C1342 1252, 1405 1240, 1438 1262 C1422 1292, 1358 1310, 1298 1308"/>
      <path d="M1308 1285 L1425 1265" stroke-width="1.5"/>
      <path d="M1265 1305 C1210 1250, 1152 1242, 1130 1268 C1148 1298, 1202 1308, 1258 1305"/>
      <path d="M1250 1282 L1142 1270" stroke-width="1.5"/>
    </g>

    <!-- Leaf pair 9 -->
    <g stroke="#B1C5A4" stroke-width="2.5">
      <path d="M1400 1110 C1458 1058, 1518 1048, 1548 1068 C1535 1098, 1475 1112, 1418 1110"/>
      <path d="M1428 1088 L1538 1072" stroke-width="1.5"/>
      <path d="M1385 1108 C1335 1058, 1280 1050, 1260 1072 C1278 1100, 1328 1110, 1380 1108"/>
      <path d="M1372 1085 L1272 1075" stroke-width="1.5"/>
    </g>

    <!-- Leaf pair 10 - near top, slightly smaller -->
    <g stroke="#B1C5A4" stroke-width="2">
      <path d="M1530 920 C1580 875, 1630 868, 1655 885 C1642 910, 1592 922, 1545 920"/>
      <path d="M1550 900 L1642 890" stroke-width="1.2"/>
      <path d="M1518 918 C1472 875, 1425 870, 1408 892 C1422 915, 1465 922, 1512 918"/>
      <path d="M1505 898 L1418 890" stroke-width="1.2"/>
    </g>

    <!-- Leaf pair 11 -->
    <g stroke="#B1C5A4" stroke-width="2">
      <path d="M1640 740 C1685 700, 1728 695, 1748 712 C1738 735, 1695 745, 1652 742"/>
      <path d="M1658 722 L1738 715" stroke-width="1.2"/>
      <path d="M1628 738 C1588 702, 1548 698, 1532 718 C1545 738, 1582 745, 1622 742"/>
      <path d="M1618 720 L1542 715" stroke-width="1.2"/>
    </g>

    <!-- Leaf pair 12 - topmost, smallest -->
    <g stroke="#B1C5A4" stroke-width="1.8">
      <path d="M1745 580 C1785 548, 1822 544, 1838 558 C1828 578, 1792 585, 1755 582"/>
      <path d="M1762 565 L1828 560" stroke-width="1"/>
      <path d="M1735 578 C1700 548, 1665 546, 1652 562 C1665 580, 1698 585, 1730 582"/>
      <path d="M1725 565 L1660 560" stroke-width="1"/>
    </g>

    <!-- Leaves on sub-branch 1 (left) -->
    <g stroke="#B1C5A4" stroke-width="2.2">
      <path d="M810 1880 C855 1835, 895 1830, 912 1850 C898 1872, 858 1880, 818 1878"/>
      <path d="M825 1860 L902 1845" stroke-width="1.2"/>
      <path d="M798 1878 C758 1838, 718 1835, 705 1855 C718 1875, 752 1880, 792 1878"/>
      <path d="M788 1858 L712 1848" stroke-width="1.2"/>
      <path d="M730 1810 C768 1770, 805 1768, 818 1785 C808 1805, 772 1812, 738 1810"/>
      <path d="M745 1792 L808 1780" stroke-width="1.2"/>
      <path d="M720 1808 C685 1772, 650 1770, 640 1790 C652 1808, 682 1812, 715 1808"/>
      <path d="M710 1790 L648 1782" stroke-width="1.2"/>
    </g>

    <!-- Leaves on sub-branch 2 (right) -->
    <g stroke="#B1C5A4" stroke-width="2">
      <path d="M1450 1070 C1488 1035, 1522 1030, 1535 1048 C1525 1068, 1492 1075, 1458 1072"/>
      <path d="M1465 1055 L1525 1042" stroke-width="1.2"/>
      <path d="M1530 1035 C1565 1002, 1598 998, 1612 1015 C1602 1035, 1570 1040, 1538 1038"/>
      <path d="M1545 1020 L1602 1010" stroke-width="1.2"/>
    </g>

    <!-- Small seed pods / buds at branch tips -->
    <g fill="#6D6244" stroke="none" opacity="0.6">
      <circle cx="650" cy="1755" r="5"/>
      <circle cx="1600" cy="995" r="4.5"/>
      <circle cx="1895" cy="332" r="4"/>
    </g>
  </g>
</svg>
